# xmcd CD database file
#
# Track frame offsets:
#	150
#	14000
#	28142
#	45504
#	62157
#	70531
#	93740
#	107809
#	122265
#	136437
#	151431
#	167027
#
# Disc length: 2498 seconds
#
# Revision: 0
# Processed by: cddbd v1.5.1PL0 Copyright (c) Steve Scherf et al.
# Submitted via: CDex 1.51
#
DISCID=a009c00c
DTITLE=Lonnie Mack - The Hills of Indiana
DYEAR=1971
DGENRE=Country
TTITLE0=Asphalt Outlaw Hero
TTITLE1=Florida
TTITLE2=Lay It Down
TTITLE3=The Hills of Indiana
TTITLE4=Uncle Pen
TTITLE5=Bicycle Annie
TTITLE6=A Fine Way to Go
TTITLE7=Rings
TTITLE8=The Man in Me
TTITLE9=She Even Woke Me Up to Say Goodbye
TTITLE10=All Good Things Will Come to Pass
TTITLE11=Three Angels
EXTD=YEAR: 1971
EXTT0=
EXTT1=
EXTT2=
EXTT3=
EXTT4=
EXTT5=
EXTT6=
EXTT7=
EXTT8=
EXTT9=
EXTT10=
EXTT11=
PLAYORDER=
